<svg width="25" height="25" viewBox="0 0 25 25" fill="none" xmlns="http://www.w3.org/2000/svg">
<path d="M22.129 12.1285H19.6497C19.2128 12.1276 18.7876 12.2698 18.4392 12.5333C18.0907 12.7969 17.8382 13.1674 17.7203 13.5881L15.3709 21.9456C15.3558 21.9976 15.3242 22.0432 15.281 22.0756C15.2377 22.1081 15.1851 22.1256 15.131 22.1256C15.0769 22.1256 15.0243 22.1081 14.981 22.0756C14.9378 22.0432 14.9062 21.9976 14.8911 21.9456L9.37267 2.31133C9.35753 2.25941 9.32596 2.21381 9.2827 2.18136C9.23944 2.14892 9.18682 2.13138 9.13274 2.13138C9.07866 2.13138 9.02605 2.14892 8.98278 2.18136C8.93952 2.21381 8.90795 2.25941 8.89281 2.31133L6.54349 10.6689C6.42599 11.0879 6.17498 11.4572 5.82856 11.7206C5.48214 11.984 5.05924 12.1272 4.62405 12.1285H2.13477" stroke="#F54900" stroke-width="1.99942" stroke-linecap="round" stroke-linejoin="round"/>
</svg>
